<?xml version="1.0" encoding="utf-8"?>
<!-- Generator: Adobe Illustrator 18.0.0, SVG Export Plug-In . SVG Version: 6.00 Build 0)  -->
<!DOCTYPE svg PUBLIC "-//W3C//DTD SVG 1.1//EN" "http://www.w3.org/Graphics/SVG/1.1/DTD/svg11.dtd">
<svg version="1.1" xmlns="http://www.w3.org/2000/svg" xmlns:xlink="http://www.w3.org/1999/xlink" x="0px" y="0px" width="2800px"
	 height="2800px" viewBox="0 0 2800 2800" enable-background="new 0 0 2800 2800" xml:space="preserve">
<g id="BACKGROUND">
	<g>
		<linearGradient id="SVGID_1_" gradientUnits="userSpaceOnUse" x1="-1.257104e-07" y1="1.257094e-07" x2="2800" y2="2800">
			<stop  offset="0" style="stop-color:#FFFFFF"/>
			<stop  offset="1" style="stop-color:#95CDF5"/>
		</linearGradient>
		<rect fill="url(#SVGID_1_)" width="2800" height="2800"/>
	</g>
	<path opacity="0.2" d="M1391.1,1517.9l-855.5,493.9c-11.8,6.8-11.8,23.9,0,30.7l855.5,493.9c5.5,3.2,12.2,3.2,17.7,0l855.5-493.8
		c11.8-6.8,11.8-23.9,0-30.7l-855.5-494.1C1403.4,1514.8,1396.6,1514.8,1391.1,1517.9z"/>
</g>
<g id="OBJECTS">
	<g>
		<g>
			<linearGradient id="SVGID_2_" gradientUnits="userSpaceOnUse" x1="843.3688" y1="521.1659" x2="1902.7285" y2="1580.5256">
				<stop  offset="0" style="stop-color:#FFFF69"/>
				<stop  offset="1" style="stop-color:#FF4545"/>
			</linearGradient>
			<path fill="url(#SVGID_2_)" d="M1692.6,799.3h-56.3c-472.7,0-661.7-409.3-661.7-409.3v927.8c0,0,189.1-409.3,661.7-409.3h75.4
				c62.8,0,113.6,50.9,113.6,113.6v540.1l94.5,1.2v-536.8C1919.9,901,1818.2,799.3,1692.6,799.3z"/>
			<linearGradient id="SVGID_3_" gradientUnits="userSpaceOnUse" x1="668.6821" y1="547.9006" x2="1280.5411" y2="1159.7598">
				<stop  offset="0" style="stop-color:#FFFF69"/>
				<stop  offset="1" style="stop-color:#FF4545"/>
			</linearGradient>
			<path fill="url(#SVGID_3_)" d="M1166,1242c-105.2,213.5-277.5,213.5-382.7,0s-105.2-562.8,0-776.3s277.5-213.5,382.7,0
				S1271.2,1028.5,1166,1242z"/>
			<g>
				<linearGradient id="SVGID_4_" gradientUnits="userSpaceOnUse" x1="818.449" y1="1149.8679" x2="1193.9197" y2="1149.8679">
					<stop  offset="0" style="stop-color:#FFFF69"/>
					<stop  offset="1" style="stop-color:#FF4545"/>
				</linearGradient>
				<path fill="url(#SVGID_4_)" d="M818.4,1193.5c35.8,67.7,79.9,107.7,125.4,120.1c23.1-50.2,90.5-169.5,229.2-228.4
					c0.8-2.9,1.6-5.8,2.4-8.8c7.7-28.9,13.9-59.2,18.4-90.2C1019.3,1008.9,877.3,1131.9,818.4,1193.5z"/>
				<linearGradient id="SVGID_5_" gradientUnits="userSpaceOnUse" x1="943.8977" y1="1201.4413" x2="1173.1257" y2="1201.4413">
					<stop  offset="0" style="stop-color:#FFFF69"/>
					<stop  offset="1" style="stop-color:#FF4545"/>
				</linearGradient>
				<path fill="url(#SVGID_5_)" d="M943.9,1313.6c11.2,3,22.6,4.4,33.9,4.1c57.6-1.6,115-46.7,158.7-135.4
					c14.6-29.6,26.8-62.3,36.6-97.1C1034.4,1144.1,967,1263.4,943.9,1313.6z"/>
				<linearGradient id="SVGID_6_" gradientUnits="userSpaceOnUse" x1="754.7502" y1="1043.417" x2="1202.4949" y2="1043.417">
					<stop  offset="0" style="stop-color:#FFFF69"/>
					<stop  offset="1" style="stop-color:#FF4545"/>
				</linearGradient>
				<path fill="url(#SVGID_6_)" d="M797.5,1148.1c4.8,11.8,9.8,23.2,15.2,34.1c1.9,3.8,3.8,7.6,5.8,11.3
					c58.9-61.6,200.9-184.6,375.5-207.4c1.4-9.4,2.6-18.9,3.7-28.5c2.4-21.2,4-42.7,4.9-64.3c-187.4,2.4-364.2,47.9-447.7,89
					C763.1,1041.7,777.3,1098.3,797.5,1148.1z"/>
				<linearGradient id="SVGID_7_" gradientUnits="userSpaceOnUse" x1="754.7502" y1="664.2433" x2="1202.4949" y2="664.2433">
					<stop  offset="0" style="stop-color:#FFFF69"/>
					<stop  offset="1" style="stop-color:#FF4545"/>
				</linearGradient>
				<path fill="url(#SVGID_7_)" d="M1193.9,721.5c-174.6-22.8-316.6-145.7-375.5-207.4c-1.9,3.7-3.9,7.4-5.8,11.3
					c-5.4,11-10.5,22.4-15.2,34.1c-20.1,49.9-34.4,106.5-42.7,165.8c83.5,41.2,260.4,86.6,447.7,89c-0.9-21.6-2.5-43.1-4.9-64.3
					C1196.5,740.4,1195.3,730.9,1193.9,721.5z"/>
				<linearGradient id="SVGID_8_" gradientUnits="userSpaceOnUse" x1="818.449" y1="557.7925" x2="1193.9197" y2="557.7925">
					<stop  offset="0" style="stop-color:#FFFF69"/>
					<stop  offset="1" style="stop-color:#FF4545"/>
				</linearGradient>
				<path fill="url(#SVGID_8_)" d="M1193.9,721.5c-4.5-31-10.6-61.3-18.4-90.2c-0.8-2.9-1.6-5.9-2.4-8.8
					c-138.8-59-206.1-178.3-229.2-228.4c-45.6,12.4-89.7,52.4-125.4,120.1C877.3,575.8,1019.3,698.8,1193.9,721.5z"/>
				<linearGradient id="SVGID_9_" gradientUnits="userSpaceOnUse" x1="745.9036" y1="853.8301" x2="1203.3196" y2="853.8301">
					<stop  offset="0" style="stop-color:#FFFF69"/>
					<stop  offset="1" style="stop-color:#FF4545"/>
				</linearGradient>
				<path fill="url(#SVGID_9_)" d="M745.9,853.8c0,43.3,3,86.6,8.8,128.5c83.5-41.2,260.4-86.6,447.7-89c0.5-13.1,0.8-26.3,0.8-39.5
					c0-13.2-0.3-26.3-0.8-39.5c-187.4-2.4-364.2-47.9-447.7-89C748.9,767.2,745.9,810.5,745.9,853.8z"/>
				<linearGradient id="SVGID_10_" gradientUnits="userSpaceOnUse" x1="943.8977" y1="506.2191" x2="1173.1257" y2="506.2191">
					<stop  offset="0" style="stop-color:#FFFF69"/>
					<stop  offset="1" style="stop-color:#FF4545"/>
				</linearGradient>
				<path fill="url(#SVGID_10_)" d="M1173.1,622.5c-9.8-34.8-22-67.5-36.6-97.1c-43.7-88.7-101.1-133.8-158.7-135.4
					c-11.3-0.3-22.6,1.1-33.9,4.1C967,444.3,1034.4,563.5,1173.1,622.5z"/>
			</g>
		</g>
		<g>
			<linearGradient id="SVGID_11_" gradientUnits="userSpaceOnUse" x1="549.2236" y1="2218.2627" x2="1400" y2="2218.2627">
				<stop  offset="0" style="stop-color:#00BFFF"/>
				<stop  offset="1" style="stop-color:#9136D9"/>
			</linearGradient>
			<polygon fill="url(#SVGID_11_)" points="549.2,1918.1 549.2,2027.2 1400,2518.4 1400,2518.4 1400,1918.1 			"/>
			<linearGradient id="SVGID_12_" gradientUnits="userSpaceOnUse" x1="1400" y1="2218.2917" x2="2250.7761" y2="2218.2917">
				<stop  offset="0" style="stop-color:#00BFFF"/>
				<stop  offset="1" style="stop-color:#9136D9"/>
			</linearGradient>
			<polygon fill="url(#SVGID_12_)" points="2250.8,1918.2 1400,1918.1 1400,2518.4 2250.8,2027.4 			"/>
			<linearGradient id="SVGID_13_" gradientUnits="userSpaceOnUse" x1="549.2236" y1="1918.0879" x2="2250.7761" y2="1918.0879">
				<stop  offset="0" style="stop-color:#00BFFF"/>
				<stop  offset="1" style="stop-color:#9136D9"/>
			</linearGradient>
			<polygon fill="url(#SVGID_13_)" points="1400,1426.9 549.2,1918.1 1400,2409.3 2250.8,1918.2 			"/>
			<linearGradient id="SVGID_14_" gradientUnits="userSpaceOnUse" x1="643.7542" y1="1999.9535" x2="1400" y2="1999.9535">
				<stop  offset="0" style="stop-color:#00BFFF"/>
				<stop  offset="1" style="stop-color:#9136D9"/>
			</linearGradient>
			<polygon fill="url(#SVGID_14_)" points="643.8,1645.2 643.8,1918.1 1400,2354.7 1400,2354.7 1400,1645.2 			"/>
			<linearGradient id="SVGID_15_" gradientUnits="userSpaceOnUse" x1="1400" y1="1999.9535" x2="2156.2454" y2="1999.9535">
				<stop  offset="0" style="stop-color:#00BFFF"/>
				<stop  offset="1" style="stop-color:#9136D9"/>
			</linearGradient>
			<polygon fill="url(#SVGID_15_)" points="2156.2,1645.2 1400,1645.2 1400,2354.7 2156.2,1918.2 			"/>
			<linearGradient id="SVGID_16_" gradientUnits="userSpaceOnUse" x1="643.7544" y1="1645.2007" x2="2156.2454" y2="1645.2007">
				<stop  offset="0" style="stop-color:#00BFFF"/>
				<stop  offset="1" style="stop-color:#9136D9"/>
			</linearGradient>
			<polygon fill="url(#SVGID_16_)" points="643.8,1645.2 1400,2081.8 2156.2,1645.2 1400,1208.6 			"/>
		</g>
		<g>
			<g opacity="0.2">
				<path d="M731.9,1628.1c-15.8,9.1-15.8,24,0,33.1c15.8,9.1,41.6,9.1,57.3,0c15.8-9.1,15.8-24,0-33.1S747.6,1619,731.9,1628.1z"/>
				<path d="M731.9,1628.1c-15.8,9.1-15.8,24,0,33.1c15.8,9.1,41.6,9.1,57.3,0c15.8-9.1,15.8-24,0-33.1S747.6,1619,731.9,1628.1z"/>
			</g>
			<g>
				<linearGradient id="SVGID_17_" gradientUnits="userSpaceOnUse" x1="725.086" y1="1644.6423" x2="795.9468" y2="1644.6423">
					<stop  offset="0" style="stop-color:#95CDF5"/>
					<stop  offset="1" style="stop-color:#FFFFFF"/>
				</linearGradient>
				<path fill="url(#SVGID_17_)" d="M794,1638c-1.7-2.9-4.5-5.5-8.4-7.8c-13.8-8-36.4-8-50.2,0c-3.9,2.3-6.7,4.9-8.4,7.8h-1.9v6.7
					l0,0c0,5.2,3.4,10.5,10.3,14.5c13.8,8,36.4,8,50.2,0c6.9-4,10.3-9.2,10.3-14.5l0,0v-6.7H794z"/>
			</g>
			<g>
				<g>
					<linearGradient id="SVGID_18_" gradientUnits="userSpaceOnUse" x1="725.086" y1="1637.9573" x2="795.9468" y2="1637.9573">
						<stop  offset="0" style="stop-color:#FFFFFF"/>
						<stop  offset="1" style="stop-color:#95CDF5"/>
					</linearGradient>
					<path fill="url(#SVGID_18_)" d="M735.4,1623.5c-13.8,8-13.8,21,0,29c13.8,8,36.4,8,50.2,0s13.8-21,0-29
						S749.2,1615.5,735.4,1623.5z"/>
				</g>
				<g>
					<linearGradient id="SVGID_19_" gradientUnits="userSpaceOnUse" x1="725.086" y1="1637.9573" x2="795.9468" y2="1637.9573">
						<stop  offset="0" style="stop-color:#FFFFFF"/>
						<stop  offset="1" style="stop-color:#95CDF5"/>
					</linearGradient>
					<path fill="url(#SVGID_19_)" d="M735.4,1623.5c-13.8,8-13.8,21,0,29c13.8,8,36.4,8,50.2,0s13.8-21,0-29
						S749.2,1615.5,735.4,1623.5z"/>
				</g>
			</g>
		</g>
		<g>
			<g opacity="0.2">
				<path d="M809.2,1589.6c-15.8,9.1-15.8,24,0,33.1c15.8,9.1,41.6,9.1,57.3,0c15.8-9.1,15.8-24,0-33.1
					C850.7,1580.5,825,1580.5,809.2,1589.6z"/>
				<path d="M809.2,1589.6c-15.8,9.1-15.8,24,0,33.1c15.8,9.1,41.6,9.1,57.3,0c15.8-9.1,15.8-24,0-33.1
					C850.7,1580.5,825,1580.5,809.2,1589.6z"/>
			</g>
			<g>
				<linearGradient id="SVGID_20_" gradientUnits="userSpaceOnUse" x1="802.4194" y1="1606.1519" x2="873.2802" y2="1606.1519">
					<stop  offset="0" style="stop-color:#95CDF5"/>
					<stop  offset="1" style="stop-color:#FFFFFF"/>
				</linearGradient>
				<path fill="url(#SVGID_20_)" d="M871.4,1599.5c-1.7-2.9-4.5-5.5-8.4-7.8c-13.8-8-36.4-8-50.2,0c-3.9,2.3-6.7,4.9-8.4,7.8h-1.9
					v6.7l0,0c0,5.2,3.4,10.5,10.3,14.5c13.8,8,36.4,8,50.2,0c6.9-4,10.3-9.2,10.3-14.5l0,0v-6.7H871.4z"/>
			</g>
			<g>
				<g>
					<linearGradient id="SVGID_21_" gradientUnits="userSpaceOnUse" x1="802.4194" y1="1599.4668" x2="873.2802" y2="1599.4668">
						<stop  offset="0" style="stop-color:#FFFFFF"/>
						<stop  offset="1" style="stop-color:#95CDF5"/>
					</linearGradient>
					<path fill="url(#SVGID_21_)" d="M812.8,1585c-13.8,8-13.8,21,0,29s36.4,8,50.2,0s13.8-21,0-29
						C849.1,1577,826.6,1577,812.8,1585z"/>
				</g>
				<g>
					<linearGradient id="SVGID_22_" gradientUnits="userSpaceOnUse" x1="802.4194" y1="1599.4668" x2="873.2802" y2="1599.4668">
						<stop  offset="0" style="stop-color:#FFFFFF"/>
						<stop  offset="1" style="stop-color:#95CDF5"/>
					</linearGradient>
					<path fill="url(#SVGID_22_)" d="M812.8,1585c-13.8,8-13.8,21,0,29s36.4,8,50.2,0s13.8-21,0-29
						C849.1,1577,826.6,1577,812.8,1585z"/>
				</g>
			</g>
		</g>
		<g>
			<g opacity="0.2">
				<path d="M2064.6,1623.7c20.4,11.8,20.4,31.1,0,42.9c-20.4,11.8-53.9,11.8-74.3,0c-20.4-11.8-20.4-31.1,0-42.9
					C2010.8,1611.9,2044.2,1611.9,2064.6,1623.7z"/>
				<path d="M2064.6,1623.7c20.4,11.8,20.4,31.1,0,42.9c-20.4,11.8-53.9,11.8-74.3,0c-20.4-11.8-20.4-31.1,0-42.9
					C2010.8,1611.9,2044.2,1611.9,2064.6,1623.7z"/>
			</g>
			<g>
				
					<linearGradient id="SVGID_23_" gradientUnits="userSpaceOnUse" x1="726.5839" y1="1645.2007" x2="818.449" y2="1645.2007" gradientTransform="matrix(-1 0 0 1 2799.9998 0)">
					<stop  offset="0" style="stop-color:#95CDF5"/>
					<stop  offset="1" style="stop-color:#FFFFFF"/>
				</linearGradient>
				<path fill="url(#SVGID_23_)" d="M1984,1636.5c2.2-3.7,5.8-7.2,10.9-10.1c17.9-10.3,47.2-10.3,65,0c5.1,2.9,8.7,6.4,10.9,10.1
					h2.5v8.7l0,0c0,6.8-4.5,13.6-13.4,18.8c-17.9,10.3-47.2,10.3-65,0c-8.9-5.2-13.4-12-13.4-18.8l0,0v-8.7H1984z"/>
			</g>
			<g>
				<g>
					
						<linearGradient id="SVGID_24_" gradientUnits="userSpaceOnUse" x1="726.5839" y1="1636.5341" x2="818.449" y2="1636.5341" gradientTransform="matrix(-1 0 0 1 2799.9998 0)">
						<stop  offset="0" style="stop-color:#FFFFFF"/>
						<stop  offset="1" style="stop-color:#95CDF5"/>
					</linearGradient>
					<path fill="url(#SVGID_24_)" d="M2060,1617.8c17.9,10.3,17.9,27.2,0,37.5c-17.9,10.3-47.2,10.3-65,0
						c-17.9-10.3-17.9-27.2,0-37.5S2042.1,1607.4,2060,1617.8z"/>
				</g>
				<g>
					
						<linearGradient id="SVGID_25_" gradientUnits="userSpaceOnUse" x1="726.5839" y1="1636.5341" x2="818.449" y2="1636.5341" gradientTransform="matrix(-1 0 0 1 2799.9998 0)">
						<stop  offset="0" style="stop-color:#FFFFFF"/>
						<stop  offset="1" style="stop-color:#95CDF5"/>
					</linearGradient>
					<path fill="url(#SVGID_25_)" d="M2060,1617.8c17.9,10.3,17.9,27.2,0,37.5c-17.9,10.3-47.2,10.3-65,0
						c-17.9-10.3-17.9-27.2,0-37.5S2042.1,1607.4,2060,1617.8z"/>
				</g>
			</g>
		</g>
		<g>
			<g>
				<linearGradient id="SVGID_26_" gradientUnits="userSpaceOnUse" x1="932.664" y1="1645.2007" x2="1867.3357" y2="1645.2007">
					<stop  offset="0" style="stop-color:#242424"/>
					<stop  offset="1" style="stop-color:#090000"/>
				</linearGradient>
				<path fill="url(#SVGID_26_)" d="M1069.1,1454.2c-182,105.1-182,277,0,382c182,105.1,479.7,105.1,661.7,0
					c182-105.1,182-277,0-382S1251.1,1349.1,1069.1,1454.2z"/>
				<linearGradient id="SVGID_27_" gradientUnits="userSpaceOnUse" x1="932.664" y1="1645.2007" x2="1867.3357" y2="1645.2007">
					<stop  offset="0" style="stop-color:#242424"/>
					<stop  offset="1" style="stop-color:#090000"/>
				</linearGradient>
				<path fill="url(#SVGID_27_)" d="M1069.1,1454.2c-182,105.1-182,277,0,382c182,105.1,479.7,105.1,661.7,0
					c182-105.1,182-277,0-382S1251.1,1349.1,1069.1,1454.2z"/>
			</g>
			<g>
				<linearGradient id="SVGID_28_" gradientUnits="userSpaceOnUse" x1="1166.3318" y1="1645.2007" x2="1633.6678" y2="1645.2007">
					<stop  offset="0" style="stop-color:#E60C0C"/>
					<stop  offset="1" style="stop-color:#2E0200"/>
				</linearGradient>
				<path fill="url(#SVGID_28_)" d="M1234.6,1549.7c-91,52.5-91,138.5,0,191c91,52.5,239.9,52.5,330.9,0c91-52.5,91-138.5,0-191
					C1474.4,1497.2,1325.6,1497.2,1234.6,1549.7z"/>
				<linearGradient id="SVGID_29_" gradientUnits="userSpaceOnUse" x1="1166.3318" y1="1645.2007" x2="1633.6678" y2="1645.2007">
					<stop  offset="0" style="stop-color:#E60C0C"/>
					<stop  offset="1" style="stop-color:#2E0200"/>
				</linearGradient>
				<path fill="url(#SVGID_29_)" d="M1234.6,1549.7c-91,52.5-91,138.5,0,191c91,52.5,239.9,52.5,330.9,0c91-52.5,91-138.5,0-191
					C1474.4,1497.2,1325.6,1497.2,1234.6,1549.7z"/>
			</g>
			<g opacity="0.4">
				<g>
					<g>
						<path fill="#FFFFFF" d="M1400,1893.4c-115,0-222.9-25.7-303.7-72.3c-40.9-23.6-72.5-51.2-94.1-82.1
							c-20.9-29.8-31.4-61.4-31.4-93.8c0-32.4,10.6-64,31.4-93.8c21.6-30.9,53.2-58.5,94.1-82.1c80.8-46.7,188.7-72.3,303.7-72.3
							c115,0,222.9,25.7,303.7,72.3c40.9,23.6,72.5,51.2,94.1,82.1c20.9,29.8,31.4,61.4,31.4,93.8c0,32.4-10.6,64-31.4,93.8
							c-21.6,30.9-53.2,58.5-94.1,82.1C1622.9,1867.7,1515,1893.4,1400,1893.4z M1400,1398.7c-114.8,0-222.3,25.6-302.9,72.1
							c-40.7,23.5-72.1,50.9-93.6,81.6c-20.7,29.5-31.1,60.8-31.1,92.8c0,32,10.5,63.3,31.1,92.8c21.4,30.6,52.9,58.1,93.6,81.6
							c80.5,46.5,188.1,72.1,302.9,72.1s222.3-25.6,302.9-72.1c40.7-23.5,72.1-50.9,93.6-81.6c20.7-29.5,31.1-60.8,31.1-92.8
							c0-32-10.5-63.3-31.1-92.8c-21.4-30.6-52.9-58.1-93.6-81.6C1622.3,1424.3,1514.8,1398.7,1400,1398.7z"/>
					</g>
					<g>
						<path fill="#FFFFFF" d="M1400,1893.4c-115,0-222.9-25.7-303.7-72.3c-40.9-23.6-72.5-51.2-94.1-82.1
							c-20.9-29.8-31.4-61.4-31.4-93.8c0-32.4,10.6-64,31.4-93.8c21.6-30.9,53.2-58.5,94.1-82.1c80.8-46.7,188.7-72.3,303.7-72.3
							c115,0,222.9,25.7,303.7,72.3c40.9,23.6,72.5,51.2,94.1,82.1c20.9,29.8,31.4,61.4,31.4,93.8c0,32.4-10.6,64-31.4,93.8
							c-21.6,30.9-53.2,58.5-94.1,82.1C1622.9,1867.7,1515,1893.4,1400,1893.4z M1400,1398.7c-114.8,0-222.3,25.6-302.9,72.1
							c-40.7,23.5-72.1,50.9-93.6,81.6c-20.7,29.5-31.1,60.8-31.1,92.8c0,32,10.5,63.3,31.1,92.8c21.4,30.6,52.9,58.1,93.6,81.6
							c80.5,46.5,188.1,72.1,302.9,72.1s222.3-25.6,302.9-72.1c40.7-23.5,72.1-50.9,93.6-81.6c20.7-29.5,31.1-60.8,31.1-92.8
							c0-32-10.5-63.3-31.1-92.8c-21.4-30.6-52.9-58.1-93.6-81.6C1622.3,1424.3,1514.8,1398.7,1400,1398.7z"/>
					</g>
				</g>
				<g>
					<g>
						<path fill="#FFFFFF" d="M1400,1870.9c-104.6,0-202.7-23.4-276.1-65.8c-37.2-21.5-66-46.6-85.6-74.6
							c-19-27.1-28.6-55.8-28.6-85.3c0-29.5,9.6-58.2,28.6-85.3c19.6-28.1,48.4-53.2,85.6-74.6c73.5-42.4,171.5-65.8,276.1-65.8
							c104.6,0,202.7,23.4,276.1,65.8c37.2,21.5,66,46.6,85.6,74.6c19,27.1,28.6,55.8,28.6,85.3c0,29.5-9.6,58.2-28.6,85.3
							c-19.6,28.1-48.4,53.2-85.6,74.6C1602.7,1847.5,1504.6,1870.9,1400,1870.9z M1400,1421.2c-104.3,0-202.1,23.3-275.3,65.5
							c-36.9,21.3-65.6,46.3-85,74.1c-18.8,26.8-28.3,55.2-28.3,84.3s9.5,57.5,28.3,84.3c19.5,27.9,48.1,52.8,85,74.1
							c73.2,42.3,171,65.5,275.3,65.5c104.3,0,202.1-23.3,275.3-65.5c36.9-21.3,65.6-46.3,85-74.1c18.8-26.8,28.3-55.2,28.3-84.3
							c0-29.1-9.5-57.5-28.3-84.3c-19.5-27.9-48.1-52.8-85-74.1C1602.1,1444.5,1504.3,1421.2,1400,1421.2z"/>
					</g>
					<g>
						<path fill="#FFFFFF" d="M1400,1870.9c-104.6,0-202.7-23.4-276.1-65.8c-37.2-21.5-66-46.6-85.6-74.6
							c-19-27.1-28.6-55.8-28.6-85.3c0-29.5,9.6-58.2,28.6-85.3c19.6-28.1,48.4-53.2,85.6-74.6c73.5-42.4,171.5-65.8,276.1-65.8
							c104.6,0,202.7,23.4,276.1,65.8c37.2,21.5,66,46.6,85.6,74.6c19,27.1,28.6,55.8,28.6,85.3c0,29.5-9.6,58.2-28.6,85.3
							c-19.6,28.1-48.4,53.2-85.6,74.6C1602.7,1847.5,1504.6,1870.9,1400,1870.9z M1400,1421.2c-104.3,0-202.1,23.3-275.3,65.5
							c-36.9,21.3-65.6,46.3-85,74.1c-18.8,26.8-28.3,55.2-28.3,84.3s9.5,57.5,28.3,84.3c19.5,27.9,48.1,52.8,85,74.1
							c73.2,42.3,171,65.5,275.3,65.5c104.3,0,202.1-23.3,275.3-65.5c36.9-21.3,65.6-46.3,85-74.1c18.8-26.8,28.3-55.2,28.3-84.3
							c0-29.1-9.5-57.5-28.3-84.3c-19.5-27.9-48.1-52.8-85-74.1C1602.1,1444.5,1504.3,1421.2,1400,1421.2z"/>
					</g>
				</g>
				<g>
					<g>
						<path fill="#FFFFFF" d="M1400,1848.4c-94.2,0-182.4-21-248.6-59.2c-33.5-19.3-59.4-41.9-77-67.2
							c-17.1-24.4-25.7-50.3-25.7-76.8c0-26.5,8.7-52.4,25.7-76.8c17.7-25.3,43.6-47.9,77-67.2c66.1-38.2,154.4-59.2,248.6-59.2
							s182.4,21,248.6,59.2c33.5,19.3,59.4,41.9,77,67.2c17.1,24.4,25.7,50.3,25.7,76.8c0,26.5-8.7,52.4-25.7,76.8
							c-17.7,25.3-43.6,47.9-77,67.2C1582.4,1827.4,1494.2,1848.4,1400,1848.4z M1400,1443.7c-93.9,0-181.8,20.9-247.7,59
							c-33.2,19.2-59,41.6-76.5,66.7c-16.9,24.1-25.4,49.7-25.4,75.8c0,26.2,8.6,51.7,25.4,75.8c17.5,25.1,43.3,47.5,76.5,66.7
							c65.9,38,153.9,59,247.7,59s181.8-20.9,247.7-59c33.2-19.2,59-41.6,76.5-66.7c16.9-24.1,25.4-49.7,25.4-75.8
							c0-26.2-8.6-51.7-25.4-75.8c-17.5-25.1-43.3-47.5-76.5-66.7C1581.8,1464.6,1493.9,1443.7,1400,1443.7z"/>
					</g>
					<g>
						<path fill="#FFFFFF" d="M1400,1848.4c-94.2,0-182.4-21-248.6-59.2c-33.5-19.3-59.4-41.9-77-67.2
							c-17.1-24.4-25.7-50.3-25.7-76.8c0-26.5,8.7-52.4,25.7-76.8c17.7-25.3,43.6-47.9,77-67.2c66.1-38.2,154.4-59.2,248.6-59.2
							s182.4,21,248.6,59.2c33.5,19.3,59.4,41.9,77,67.2c17.1,24.4,25.7,50.3,25.7,76.8c0,26.5-8.7,52.4-25.7,76.8
							c-17.7,25.3-43.6,47.9-77,67.2C1582.4,1827.4,1494.2,1848.4,1400,1848.4z M1400,1443.7c-93.9,0-181.8,20.9-247.7,59
							c-33.2,19.2-59,41.6-76.5,66.7c-16.9,24.1-25.4,49.7-25.4,75.8c0,26.2,8.6,51.7,25.4,75.8c17.5,25.1,43.3,47.5,76.5,66.7
							c65.9,38,153.9,59,247.7,59s181.8-20.9,247.7-59c33.2-19.2,59-41.6,76.5-66.7c16.9-24.1,25.4-49.7,25.4-75.8
							c0-26.2-8.6-51.7-25.4-75.8c-17.5-25.1-43.3-47.5-76.5-66.7C1581.8,1464.6,1493.9,1443.7,1400,1443.7z"/>
					</g>
				</g>
				<g>
					<g>
						<path fill="#FFFFFF" d="M1400,1825.9c-83.7,0-162.2-18.7-221-52.6c-58.9-34-91.4-79.5-91.4-128.1c0-48.6,32.5-94.1,91.4-128.1
							c58.8-33.9,137.3-52.6,221-52.6s162.2,18.7,221,52.6c58.9,34,91.4,79.5,91.4,128.1c0,48.6-32.5,94-91.4,128.1
							C1562.2,1807.2,1483.7,1825.9,1400,1825.9z M1400,1466.2c-83.4,0-161.6,18.6-220.1,52.4c-58.4,33.7-90.6,78.7-90.6,126.6
							c0,47.9,32.2,92.9,90.6,126.6c58.5,33.8,136.7,52.4,220.1,52.4s161.6-18.6,220.1-52.4c58.4-33.7,90.6-78.7,90.6-126.6
							c0-47.9-32.2-92.9-90.6-126.6C1561.6,1484.8,1483.4,1466.2,1400,1466.2z"/>
					</g>
					<g>
						<path fill="#FFFFFF" d="M1400,1825.9c-83.7,0-162.2-18.7-221-52.6c-58.9-34-91.4-79.5-91.4-128.1c0-48.6,32.5-94.1,91.4-128.1
							c58.8-33.9,137.3-52.6,221-52.6s162.2,18.7,221,52.6c58.9,34,91.4,79.5,91.4,128.1c0,48.6-32.5,94-91.4,128.1
							C1562.2,1807.2,1483.7,1825.9,1400,1825.9z M1400,1466.2c-83.4,0-161.6,18.6-220.1,52.4c-58.4,33.7-90.6,78.7-90.6,126.6
							c0,47.9,32.2,92.9,90.6,126.6c58.5,33.8,136.7,52.4,220.1,52.4s161.6-18.6,220.1-52.4c58.4-33.7,90.6-78.7,90.6-126.6
							c0-47.9-32.2-92.9-90.6-126.6C1561.6,1484.8,1483.4,1466.2,1400,1466.2z"/>
					</g>
				</g>
				<g>
					<g>
						<path fill="#FFFFFF" d="M1400,1803.4c-73.3,0-142-16.4-193.4-46.1c-51.6-29.8-80-69.6-80-112.2c0-42.5,28.4-82.4,80-112.2
							c51.5-29.7,120.2-46.1,193.4-46.1c73.3,0,142,16.4,193.4,46.1c51.6,29.8,80,69.6,80,112.2c0,42.5-28.4,82.4-80,112.2
							C1542,1787.1,1473.3,1803.4,1400,1803.4z M1400,1488.7c-73,0-141.4,16.3-192.6,45.8c-51.1,29.5-79.2,68.8-79.2,110.7
							c0,41.9,28.1,81.2,79.2,110.7c51.2,29.6,119.6,45.9,192.6,45.9c73,0,141.4-16.3,192.6-45.9c51.1-29.5,79.2-68.8,79.2-110.7
							c0-41.9-28.1-81.2-79.2-110.7C1541.4,1504.9,1473,1488.7,1400,1488.7z"/>
					</g>
					<g>
						<path fill="#FFFFFF" d="M1400,1803.4c-73.3,0-142-16.4-193.4-46.1c-51.6-29.8-80-69.6-80-112.2c0-42.5,28.4-82.4,80-112.2
							c51.5-29.7,120.2-46.1,193.4-46.1c73.3,0,142,16.4,193.4,46.1c51.6,29.8,80,69.6,80,112.2c0,42.5-28.4,82.4-80,112.2
							C1542,1787.1,1473.3,1803.4,1400,1803.4z M1400,1488.7c-73,0-141.4,16.3-192.6,45.8c-51.1,29.5-79.2,68.8-79.2,110.7
							c0,41.9,28.1,81.2,79.2,110.7c51.2,29.6,119.6,45.9,192.6,45.9c73,0,141.4-16.3,192.6-45.9c51.1-29.5,79.2-68.8,79.2-110.7
							c0-41.9-28.1-81.2-79.2-110.7C1541.4,1504.9,1473,1488.7,1400,1488.7z"/>
					</g>
				</g>
			</g>
			<g>
				<path fill="#FFFFFF" d="M1352.7,1617.9c-26,15-26,39.6,0,54.6s68.5,15,94.5,0c26-15,26-39.6,0-54.6
					C1421.3,1602.9,1378.7,1602.9,1352.7,1617.9z"/>
				<path fill="none" d="M1352.7,1617.9c-26,15-26,39.6,0,54.6s68.5,15,94.5,0c26-15,26-39.6,0-54.6
					C1421.3,1602.9,1378.7,1602.9,1352.7,1617.9z"/>
			</g>
		</g>
		<g>
			<linearGradient id="SVGID_30_" gradientUnits="userSpaceOnUse" x1="1670.3014" y1="1315.3411" x2="1776.1058" y2="1421.1456">
				<stop  offset="0" style="stop-color:#FFFF69"/>
				<stop  offset="1" style="stop-color:#FF4545"/>
			</linearGradient>
			<path fill="url(#SVGID_30_)" d="M1884.3,1304.1c0-15-10.6-33.4-23.6-40.9c-6.6-3.8-12.6-4.1-16.9-1.5l-283.4,163.6l33.4,57.8
				l283.6-163.7l0,0C1881.6,1316.9,1884.3,1311.6,1884.3,1304.1z"/>
			<g>
				<linearGradient id="SVGID_31_" gradientUnits="userSpaceOnUse" x1="1553.9871" y1="1431.1052" x2="1600.1367" y2="1477.2549">
					<stop  offset="0" style="stop-color:#FFFF69"/>
					<stop  offset="1" style="stop-color:#FF4545"/>
				</linearGradient>
				<path fill="url(#SVGID_31_)" d="M1577.1,1426.9c-13-7.5-23.6-1.4-23.6,13.6c0,15,10.6,33.4,23.6,40.9c13,7.5,23.6,1.4,23.6-13.6
					S1590.1,1434.4,1577.1,1426.9z"/>
				<linearGradient id="SVGID_32_" gradientUnits="userSpaceOnUse" x1="1553.9871" y1="1431.1052" x2="1600.1367" y2="1477.2549">
					<stop  offset="0" style="stop-color:#FFFF69"/>
					<stop  offset="1" style="stop-color:#FF4545"/>
				</linearGradient>
				<path fill="url(#SVGID_32_)" d="M1577.1,1426.9c-13-7.5-23.6-1.4-23.6,13.6c0,15,10.6,33.4,23.6,40.9c13,7.5,23.6,1.4,23.6-13.6
					S1590.1,1434.4,1577.1,1426.9z"/>
			</g>
		</g>
	</g>
</g>
</svg>
